<?xml version="1.0" encoding="utf-8"?>
<!-- Generator: Adobe Illustrator 16.0.0, SVG Export Plug-In . SVG Version: 6.00 Build 0)  -->
<!DOCTYPE svg PUBLIC "-//W3C//DTD SVG 1.1//EN" "http://www.w3.org/Graphics/SVG/1.1/DTD/svg11.dtd">
<svg version="1.1" xmlns="http://www.w3.org/2000/svg" xmlns:xlink="http://www.w3.org/1999/xlink" x="0px" y="0px" width="800px"
	 height="250px" viewBox="0 0 800 250" enable-background="new 0 0 800 250" xml:space="preserve">
<g id="Layer_10" display="none">
	<rect x="-15.5" y="0.5" display="inline" fill="#FF9292" stroke="#000000" stroke-miterlimit="10" width="842" height="250"/>
</g>
<g id="Layer_6">
	<circle fill="#112539" cx="409.5" cy="124.959" r="125"/>
</g>
<g id="Layer_9">
	<polygon fill="#CCCCCC" points="475.667,146.135 478.795,147.418 473.167,157.5 	"/>
	<polygon fill="#FFFFFF" points="461.834,144.334 453.084,144 489.917,119.584 	"/>
	<polygon fill="#E5E5E5" points="473.167,157.5 461.834,144.334 489.917,119.584 475.875,147.135 	"/>
	<polyline fill="#FFFFFF" points="475.875,147.135 489.917,119.584 493.563,156.5 	"/>
</g>
<g id="Layer_11">
	<path fill="none" stroke="#FFFFFF" stroke-width="5" stroke-linecap="round" stroke-linejoin="round" stroke-miterlimit="10" d="
		M451.792,75.334c0,0-7.396-15.333-36.063-15.333c0,0-66.033-5.75-66.031,69c0,0-0.016,60.75,63.984,61.667
		c0,0,35.33,1.667,55.324-25.333"/>
</g>
<g id="Layer_5" display="none">
	<polygon display="inline" fill="#09151E" points="475.667,146.135 478.795,147.418 473.167,157.5 	"/>
	<polygon display="inline" fill="#214B68" points="461.834,144.334 453.084,144 489.917,119.584 	"/>
	<polygon display="inline" fill="#112539" points="473.167,157.5 461.834,144.334 489.917,119.584 475.875,147.135 	"/>
	<polyline display="inline" fill="#214B68" points="475.875,147.135 489.917,119.584 493.563,156.5 	"/>
	
		<path display="inline" fill="none" stroke="#112539" stroke-width="5" stroke-linecap="round" stroke-linejoin="round" stroke-miterlimit="10" d="
		M451.792,75.334c0,0-7.396-15.333-36.063-15.333c0,0-66.033-5.75-66.031,69c0,0-0.016,60.75,63.984,61.667
		c0,0,35.33,1.667,55.324-25.333"/>
</g>
<g id="Guides">
</g>
</svg>
